<?xml version="1.0" encoding="UTF-8"?>
<svg id="Capa_1" data-name="Capa 1" xmlns="http://www.w3.org/2000/svg" viewBox="0 0 29.29 29.8">
  <defs>
    <style>
      .cls-1 {
        fill: none;
        stroke: #1d1d1b;
        stroke-miterlimit: 10;
        stroke-width: 3.86px;
      }

      .cls-2 {
        fill: #1d1d1b;
      }
    </style>
  </defs>
  <line class="cls-1" x1="27.77" y1="28.4" x2="20.33" y2="20.97"/>
  <path class="cls-2" d="M12.45.2C8.92.2,5.74,1.69,3.52,4.09,1.46,6.28.21,9.21.21,12.44c0,6.76,5.48,12.24,12.24,12.24,3.23,0,6.16-1.24,8.35-3.31,2.4-2.22,3.89-5.4,3.89-8.94C24.7,5.68,19.22.2,12.45.2ZM18.28,18.85c-1.54,1.41-3.58,2.26-5.82,2.26-4.79,0-8.67-3.88-8.67-8.67,0-2.24.85-4.28,2.26-5.82,1.58-1.76,3.87-2.85,6.41-2.85,4.79,0,8.67,3.88,8.67,8.67,0,2.55-1.09,4.83-2.85,6.41Z"/>
</svg>