<?xml version="1.0" encoding="UTF-8"?>
<svg id="Capa_1" data-name="Capa 1" xmlns="http://www.w3.org/2000/svg" viewBox="0 0 161.31 72.54">
  <defs>
    <style>
      .cls-1 {
        fill: #98bee5;
      }

      .cls-2 {
        fill: #38508e;
      }
    </style>
  </defs>
  <g>
    <path class="cls-2" d="M18.18,22.71l-.6,3.16h-6.75s-3.59,15.65-3.59,15.65h-3.96l3.59-15.64H.77l.77-3.16h16.64Z"/>
    <path class="cls-2" d="M22.66,41.8c-1.77,0-3.24-.34-4.43-1.03-1.19-.68-2-1.67-2.45-2.95-.45-1.28-.46-2.81-.04-4.57l2.45-10.54h3.99l-2.56,11.14c-.21,1.03-.2,1.89.01,2.59.22.7.63,1.24,1.23,1.6.6.36,1.32.54,2.15.54,1.18,0,2.1-.37,2.76-1.11.66-.74,1.16-1.8,1.48-3.16l2.68-11.6h3.96l-2.76,11.88c-.53,2.3-1.48,4.07-2.85,5.33-1.37,1.25-3.24,1.88-5.61,1.88Z"/>
    <path class="cls-2" d="M32,41.52l4.36-18.81h4.36l3.73,11.26.91,3.19h.03l.74-3.59,2.51-10.86h3.53l-4.36,18.81h-4.27l-3.85-11.14-.94-3.19h-.03l-.68,3.48-2.48,10.86h-3.56Z"/>
    <path class="cls-2" d="M50.41,41.52l4.36-18.81h6.13c1.71,0,3.14.32,4.3.97,1.16.65,2.04,1.54,2.64,2.69.6,1.15.9,2.47.9,3.98,0,1.63-.24,3.13-.71,4.49-.48,1.36-1.17,2.54-2.08,3.53-.91,1-2,1.77-3.26,2.32-1.26.55-2.69.83-4.29.83h-7.98ZM55.08,38.41h3.28c1.01,0,1.9-.22,2.69-.67.79-.45,1.45-1.05,1.99-1.81.54-.76.95-1.61,1.23-2.55.28-.94.41-1.9.41-2.89,0-.91-.16-1.72-.47-2.42-.31-.7-.78-1.25-1.4-1.65-.62-.4-1.4-.6-2.35-.6h-2.45l-2.93,12.59Z"/>
    <path class="cls-2" d="M68.08,41.52l4.36-18.81h7.32c1.8,0,3.23.46,4.29,1.37,1.05.91,1.58,2.19,1.58,3.85,0,1.25-.29,2.34-.85,3.26-.57.92-1.34,1.65-2.32,2.18-.98.53-2.09.85-3.32.94l-1.11.23h-4.82l.66-2.96h4.13c.8,0,1.47-.15,2.01-.44.54-.29.95-.7,1.24-1.21s.43-1.08.43-1.71c0-.8-.26-1.4-.78-1.8-.52-.4-1.22-.6-2.09-.6h-3.16l-3.62,15.7h-3.93ZM79.93,41.52l-2.99-8.12,3.68-.54,3.39,8.66h-4.07Z"/>
    <path class="cls-2" d="M82.47,41.52l10.91-18.81h4.84l2.14,18.81h-3.79l-.46-4.79h-6.81l-2.65,4.79h-4.19ZM90.87,33.85h5.04l-.71-7.89-4.33,7.89Z"/>
  </g>
  <path class="cls-2" d="M158.92,47.53c-4.82-8.56-11.99-12.87-12.8-13.15-.03-.01-.05-.05-.04-.08.17-.43,1.08-3.14.95-7.01-.09-2.79-2.51-7.12-3.7-8.65,0,0-.01-.01-.02-.02-.03-.03-.05-.06-.07-.09-.05-.04-.09-.09-.13-.14-.04-.04-.07-.08-.1-.12,0,0,0,0,0,0,0,0-.01-.01-.02-.02,0,0-.01-.01-.02-.02-.15-.17-.28-.36-.39-.56-.03-.05-.06-.09-.09-.14-.03.29.19.64.53,1.27,3.26,6.19,3.74,11.76,2.02,14.66-.47.79-.28,1.85.46,2.38,30.83,22.19.15,33.61.15,33.61,0,0,5.79-7.1,2.52-12.53,0,0-.98-1.91-2.33-2.34,0,0,1.32.76,1.28,3.37-.02,1.35-1.28,7.09-11.81,11.59-10.53,4.5-25.71-6.93-25.71-6.93,0,0,1.84-2.4,5.89-.46l.2.09c.39.16.62.28,1.1.42,1.55.46,3.58.78,2.79-1.42,0,0,.2,2.81-3.6-.51-2.73-2.38-6.65-2.07-8.89-1.74-.44.06-.88.09-1.33.09l-1.34-.02c-.37,0-.73-.04-1.09-.1-1.52-.26-3.74-.48-5.71-.08-1.67.34-2.34.52-2.58.61.81-1.39,9.97-16.42,27.29-14.04,1.72.24,1.85.35,4.97,1.52,1.69.64,1.89.65,3.13.81.19.02.55.03.79.01.52-.03,1.17-.11,1.96-.35,5.13-1.56,4.32-5.69,4.32-5.69-.17,5.59-6.45,6.22-8.22,5.63-1.13-.38-1.2-.5-2-.83-2.15-.9-8.06-4.64-18.57-1.48-12.89,3.88-19.48,20.64-19.48,20.64,0,0,6.66-5.32,10.13-5.46,3.47-.14,6.79,1.46,6.79,1.46,0,0,4.09,1.73,6.24,3.6,2.15,1.87,6.1,4.43,6.1,4.44,0,0,0,0,0,0,0,0,4.71,2.36,7.55,2.56,2.84.21,13.51-.03,18.09-1.32,4.9-1.38,7.35-2.69,9.87-4.48,2.08-2.12,10.48-9.17,4.93-19.01Z"/>
  <path class="cls-2" d="M111.35,39.02s.69.5,0,1.88-1.23-.68-1.23-.68l1.23-1.19Z"/>
  <path class="cls-2" d="M123.86,39.46c3.64-4.99,11.8-2.15,11.8-2.15,0,0-7.89-4.62-13.14,1.8-5.26,6.41-11.85,1.98-11.85,1.98,2.05-3,2.1-3.4,2.16-3.77.01-.09.04-.19.05-.28.53-6.77,2.86-5.21,2.86-5.21-8.69-5.97-2.39-14.16-2.39-14.16-3.52-2.72-3.04-9.81-3.04-9.81,2.17.88,6.05,1.79,7.12,2.77.65.6,1.06,1.41,1.18,2.28.67,4.79-2.67,8.96-2.67,8.96,3.04-3.67,4.66-4.46,4.99-9.53.36-5.51,1.95-7.9,1.95-7.9.11.09.21.17.3.24.65.51,1.38.9,2.15,1.17,3.28,1.13,4.08,1.51,4.08,1.51,5.47,2.19,3.63,11.62,3.63,11.62,5.85-11.13-4.37-13.38-4.37-13.38-5.25-.97-5.43-5.68-5.43-5.68-2.44,2.06-4.03,10.18-4.03,10.18l-.58-.58c-1.25-1.25-4.25-1.8-4.25-1.8-2.57-.48-4.76-1.87-4.76-1.87-.87,8.56,1.99,13.86,1.99,13.86-3.31,6.34.68,11.67.68,11.67,1.58,5.63-2.63,8.55-2.63,8.55,1.37,3.2,4.75,3.86,7.17,3.89,1.46.02,2.85-.56,3.97-1.51,2.15-1.84,4.74-2.49,9.15-4.22"/>
  <path class="cls-2" d="M144.13,28.12s-.55-11.67-8.65-15.18c0,0,9.6,1.36,8.63,13.39"/>
  <path class="cls-1" d="M131.55,14.55c-.23-.87-1.21-3.02-5.53-5.97-.51-.35-.97-.78-1.34-1.27-.3-.4-.57-.88-.67-1.39,0,0-.92,2.23,2.01,5.89,0,0-4.34.34-4.73-2.5,0,0-.15,3.21,2.94,4.15,0,0,.07,2.19-3.45,3.16,0,0-.07,1.17,6.54-1.47,0,0,1.51-.82,3.61.28,0,0,.15.09.37,0,0,0,0,0,0,0,.23-.22.32-.55.24-.86Z"/>
</svg>